<?xml version="1.0" encoding="UTF-8" standalone="no"?>
<svg
   xmlns:dc="http://purl.org/dc/elements/1.1/"
   xmlns:cc="http://creativecommons.org/ns#"
   xmlns:rdf="http://www.w3.org/1999/02/22-rdf-syntax-ns#"
   xmlns:svg="http://www.w3.org/2000/svg"
   xmlns="http://www.w3.org/2000/svg"
   viewBox="0 0 793.33331 1122.6667"
   height="1122.6667"
   width="793.33331"
   xml:space="preserve"
   id="svg2"
   version="1.1"><metadata
     id="metadata8"><rdf:RDF><cc:Work
         rdf:about=""><dc:format>image/svg+xml</dc:format><dc:type
           rdf:resource="http://purl.org/dc/dcmitype/StillImage" /></cc:Work></rdf:RDF></metadata><defs
     id="defs6"><clipPath
       id="clipPath18"
       clipPathUnits="userSpaceOnUse"><path
         style="clip-rule:evenodd"
         id="path16"
         d="M 0,0 H 595.3 V 842 H 0 Z" /></clipPath></defs><g
     transform="matrix(1.3333333,0,0,-1.3333333,0,1122.6667)"
     id="g10"><g
       id="g12"><g
         clip-path="url(#clipPath18)"
         id="g14"><path
           id="path20"
           style="fill:#ffffff;fill-opacity:1;fill-rule:evenodd;stroke:none"
           d="M 0,842 H 595.2 V 0.1 L 0,0.1 Z" /><path
           id="path22"
           style="fill:#ffff00;fill-opacity:1;fill-rule:evenodd;stroke:none"
           d="M 155.9,629.4 H 85 V 785.3 H 226.8 V 629.4 Z" /><g
           id="g24"><path
             id="path26"
             style="fill:none;stroke:#000000;stroke-width:0.75;stroke-linecap:butt;stroke-linejoin:round;stroke-miterlimit:10;stroke-dasharray:none;stroke-opacity:1"
             d="M 155.9,629.4 H 85 V 785.3 H 226.8 V 629.4 Z" /></g><path
           id="path28"
           style="fill:#ffff00;fill-opacity:1;fill-rule:evenodd;stroke:none"
           d="M 141.7,459.3 H 85 V 601.1 H 198.4 V 459.3 Z" /><g
           id="g30"><path
             id="path32"
             style="fill:none;stroke:#000000;stroke-width:0.75;stroke-linecap:butt;stroke-linejoin:round;stroke-miterlimit:10;stroke-dasharray:none;stroke-opacity:1"
             d="M 141.7,459.3 H 85 V 601.1 H 198.4 V 459.3 Z" /></g><path
           id="path34"
           style="fill:#ffff00;fill-opacity:1;fill-rule:evenodd;stroke:none"
           d="M 141.7,275.1 H 85 V 416.8 H 198.4 V 275.1 Z" /><g
           id="g36"><path
             id="path38"
             style="fill:none;stroke:#000000;stroke-width:0.75;stroke-linecap:butt;stroke-linejoin:round;stroke-miterlimit:10;stroke-dasharray:none;stroke-opacity:1"
             d="M 141.7,275.1 H 85 V 416.8 H 198.4 V 275.1 Z" /></g><path
           id="path40"
           style="fill:#ffff00;fill-opacity:1;fill-rule:evenodd;stroke:none"
           d="M 141.7,76.6 H 85 v 156 h 113.4 v -156 z" /><g
           id="g42"><path
             id="path44"
             style="fill:none;stroke:#000000;stroke-width:0.75;stroke-linecap:butt;stroke-linejoin:round;stroke-miterlimit:10;stroke-dasharray:none;stroke-opacity:1"
             d="M 141.7,76.6 H 85 v 156 h 113.4 v -156 z" /></g><path
           id="path46"
           style="fill:#99ccff;fill-opacity:1;fill-rule:evenodd;stroke:none"
           d="m 389.8,190 c 28.1,0 49.6,-27.6 49.6,-63.7 0,-36.2 -21.5,-63.8 -49.6,-63.8 -28.2,0 -49.6,27.6 -49.6,63.8 0,36.1 21.4,63.7 49.6,63.7 z m -49.6,0 z M 439.4,62.4 Z" /><g
           id="g48"><path
             id="path50"
             style="fill:none;stroke:#000000;stroke-width:0.75;stroke-linecap:butt;stroke-linejoin:round;stroke-miterlimit:10;stroke-dasharray:none;stroke-opacity:1"
             d="m 389.8,190 c 28.1,0 49.6,-27.6 49.6,-63.7 0,-36.2 -21.5,-63.8 -49.6,-63.8 -28.2,0 -49.6,27.6 -49.6,63.8 0,36.1 21.4,63.7 49.6,63.7 z" /></g><g
           id="g52"><path
             id="path54"
             style="fill:none;stroke:#000000;stroke-width:0.75;stroke-linecap:butt;stroke-linejoin:round;stroke-miterlimit:10;stroke-dasharray:none;stroke-opacity:1"
             d="M 340.2,190 Z" /></g><g
           id="g56"><path
             id="path58"
             style="fill:none;stroke:#000000;stroke-width:0.75;stroke-linecap:butt;stroke-linejoin:round;stroke-miterlimit:10;stroke-dasharray:none;stroke-opacity:1"
             d="M 439.4,62.4 Z" /></g><path
           id="path60"
           style="fill:#99ccff;fill-opacity:1;fill-rule:evenodd;stroke:none"
           d="m 389.8,331.8 c 28.1,0 49.6,-27.6 49.6,-63.8 0,-36.2 -21.5,-63.8 -49.6,-63.8 -28.2,0 -49.6,27.6 -49.6,63.8 0,36.2 21.4,63.8 49.6,63.8 z m -49.6,0 z m 99.2,-127.6 z" /><g
           id="g62"><path
             id="path64"
             style="fill:none;stroke:#000000;stroke-width:0.75;stroke-linecap:butt;stroke-linejoin:round;stroke-miterlimit:10;stroke-dasharray:none;stroke-opacity:1"
             d="m 389.8,331.8 c 28.1,0 49.6,-27.6 49.6,-63.8 0,-36.2 -21.5,-63.8 -49.6,-63.8 -28.2,0 -49.6,27.6 -49.6,63.8 0,36.2 21.4,63.8 49.6,63.8 z" /></g><g
           id="g66"><path
             id="path68"
             style="fill:none;stroke:#000000;stroke-width:0.75;stroke-linecap:butt;stroke-linejoin:round;stroke-miterlimit:10;stroke-dasharray:none;stroke-opacity:1"
             d="M 340.2,331.8 Z" /></g><g
           id="g70"><path
             id="path72"
             style="fill:none;stroke:#000000;stroke-width:0.75;stroke-linecap:butt;stroke-linejoin:round;stroke-miterlimit:10;stroke-dasharray:none;stroke-opacity:1"
             d="M 439.4,204.2 Z" /></g><path
           id="path74"
           style="fill:#b3b3b3;fill-opacity:1;fill-rule:evenodd;stroke:none"
           d="m 403.9,473.5 c 28.2,0 49.6,-27.6 49.6,-63.8 0,-36.2 -21.4,-63.8 -49.6,-63.8 -28.1,0 -49.6,27.6 -49.6,63.8 0,36.2 21.5,63.8 49.6,63.8 z m -49.6,0 z m 99.3,-127.6 z" /><g
           id="g76"><path
             id="path78"
             style="fill:none;stroke:#000000;stroke-width:0.75;stroke-linecap:butt;stroke-linejoin:round;stroke-miterlimit:10;stroke-dasharray:none;stroke-opacity:1"
             d="m 403.9,473.5 c 28.2,0 49.6,-27.6 49.6,-63.8 0,-36.2 -21.4,-63.8 -49.6,-63.8 -28.1,0 -49.6,27.6 -49.6,63.8 0,36.2 21.5,63.8 49.6,63.8 z" /></g><g
           id="g80"><path
             id="path82"
             style="fill:none;stroke:#000000;stroke-width:0.75;stroke-linecap:butt;stroke-linejoin:round;stroke-miterlimit:10;stroke-dasharray:none;stroke-opacity:1"
             d="M 354.3,473.5 Z" /></g><g
           id="g84"><path
             id="path86"
             style="fill:none;stroke:#000000;stroke-width:0.75;stroke-linecap:butt;stroke-linejoin:round;stroke-miterlimit:10;stroke-dasharray:none;stroke-opacity:1"
             d="M 453.6,345.9 Z" /></g><path
           id="path88"
           style="fill:#ffff00;fill-opacity:1;fill-rule:evenodd;stroke:none"
           d="M 326,549.1 V 700.3 H 496.1 V 549.1 h -63.8 v -37.8 h 21.2 L 411,473.5 368.5,511.3 h 21.3 v 37.8 z m 0,151.2 z M 496.1,473.5 Z" /><g
           id="g90"><path
             id="path92"
             style="fill:none;stroke:#000000;stroke-width:0.75;stroke-linecap:butt;stroke-linejoin:round;stroke-miterlimit:10;stroke-dasharray:none;stroke-opacity:1"
             d="M 326,549.1 V 700.3 H 496.1 V 549.1 h -63.8 v -37.8 h 21.2 L 411,473.5 368.5,511.3 h 21.3 v 37.8 z" /></g><g
           id="g94"><path
             id="path96"
             style="fill:none;stroke:#000000;stroke-width:0.75;stroke-linecap:butt;stroke-linejoin:round;stroke-miterlimit:10;stroke-dasharray:none;stroke-opacity:1"
             d="M 326,700.3 Z" /></g><g
           id="g98"><path
             id="path100"
             style="fill:none;stroke:#000000;stroke-width:0.75;stroke-linecap:butt;stroke-linejoin:round;stroke-miterlimit:10;stroke-dasharray:none;stroke-opacity:1"
             d="M 496.1,473.5 Z" /></g><g
           id="g102"><path
             id="path104"
             style="fill:none;stroke:#000000;stroke-width:2.82999992;stroke-linecap:butt;stroke-linejoin:round;stroke-miterlimit:10;stroke-dasharray:none;stroke-opacity:1"
             d="M 198.4,530.2 C 304.7,530.2 233.9,268 340.2,268" /></g><g
           id="g106"><path
             id="path108"
             style="fill:none;stroke:#000000;stroke-width:2.82999992;stroke-linecap:butt;stroke-linejoin:round;stroke-miterlimit:10;stroke-dasharray:none;stroke-opacity:1"
             d="m 198.4,345.9 c 106.3,0 35.5,-77.9 141.8,-77.9" /></g><path
           id="path110"
           style="fill:#000000;fill-opacity:1;fill-rule:evenodd;stroke:none"
           d="m 198.4,156 c 6.7,0 12.7,-0.1 18.1,-0.3 l -0.1,-1.4 v -1.4 c -5.4,0.2 -11.3,0.3 -18,0.3 v 1.4 z" /><path
           id="path112"
           style="fill:#000000;fill-opacity:1;fill-rule:evenodd;stroke:none"
           d="m 216.5,155.7 c 5.4,-0.2 10.2,-0.4 14.5,-0.8 l -0.1,-1.4 -0.2,-1.5 c -4.2,0.4 -9,0.7 -14.3,0.9 v 1.4 z" /><path
           id="path114"
           style="fill:#000000;fill-opacity:1;fill-rule:evenodd;stroke:none"
           d="m 231,154.9 c 4.3,-0.4 8.1,-0.8 11.4,-1.4 l -0.2,-1.3 -0.2,-1.4 c -3.3,0.5 -7,0.9 -11.3,1.2 l 0.2,1.5 z" /><path
           id="path116"
           style="fill:#000000;fill-opacity:1;fill-rule:evenodd;stroke:none"
           d="m 242.4,153.5 c 3.4,-0.5 6.4,-1 8.9,-1.7 l -0.3,-1.3 -0.3,-1.4 c -2.6,0.6 -5.4,1.2 -8.7,1.7 l 0.2,1.4 z" /><path
           id="path118"
           style="fill:#000000;fill-opacity:1;fill-rule:evenodd;stroke:none"
           d="m 251.3,151.8 c 2.7,-0.6 4.9,-1.3 6.9,-2 l -0.5,-1.4 -0.5,-1.3 c -1.9,0.7 -4,1.4 -6.5,2 l 0.3,1.4 z" /><path
           id="path120"
           style="fill:#000000;fill-opacity:1;fill-rule:evenodd;stroke:none"
           d="m 258.2,149.8 c 2,-0.8 3.7,-1.6 5.2,-2.4 l -0.7,-1.2 -0.7,-1.3 c -1.4,0.8 -3,1.5 -4.8,2.2 l 0.5,1.3 z" /><path
           id="path122"
           style="fill:#000000;fill-opacity:1;fill-rule:evenodd;stroke:none"
           d="m 263.4,147.4 c 3,-1.6 5.2,-3.3 7.3,-5.1 l -0.9,-1.1 -0.9,-1.1 c -2,1.7 -4.1,3.3 -6.9,4.8 l 0.7,1.3 z" /><path
           id="path124"
           style="fill:#000000;fill-opacity:1;fill-rule:evenodd;stroke:none"
           d="m 270.7,142.3 c 2,-1.7 3.8,-3.3 6.2,-5 l -0.8,-1.1 -0.8,-1.2 c -2.4,1.7 -4.4,3.4 -6.4,5.1 l 0.9,1.1 z" /><path
           id="path126"
           style="fill:#000000;fill-opacity:1;fill-rule:evenodd;stroke:none"
           d="m 276.9,137.3 c 1.2,-0.8 2.4,-1.5 3.9,-2.2 l -0.6,-1.3 -0.6,-1.3 c -1.6,0.8 -3,1.6 -4.3,2.5 l 0.8,1.2 z" /><path
           id="path128"
           style="fill:#000000;fill-opacity:1;fill-rule:evenodd;stroke:none"
           d="m 280.8,135.1 c 1.5,-0.8 3.2,-1.5 5.2,-2.2 l -0.5,-1.3 -0.4,-1.3 c -2.1,0.7 -4,1.4 -5.5,2.2 l 0.6,1.3 z" /><path
           id="path130"
           style="fill:#000000;fill-opacity:1;fill-rule:evenodd;stroke:none"
           d="m 286,132.9 c 2,-0.6 4.2,-1.2 6.9,-1.8 l -0.3,-1.4 -0.3,-1.4 c -2.8,0.6 -5.2,1.3 -7.2,2 l 0.4,1.3 z" /><path
           id="path132"
           style="fill:#000000;fill-opacity:1;fill-rule:evenodd;stroke:none"
           d="m 292.9,131.1 c 2.6,-0.6 5.6,-1.1 9.1,-1.6 l -0.2,-1.3 -0.1,-1.5 c -3.6,0.5 -6.7,1 -9.4,1.6 l 0.3,1.4 z" /><path
           id="path134"
           style="fill:#000000;fill-opacity:1;fill-rule:evenodd;stroke:none"
           d="m 302,129.5 c 3.5,-0.4 7.4,-0.8 11.9,-1.1 l -0.1,-1.4 -0.1,-1.4 c -4.5,0.3 -8.5,0.7 -12,1.1 l 0.1,1.5 z" /><path
           id="path136"
           style="fill:#000000;fill-opacity:1;fill-rule:evenodd;stroke:none"
           d="m 313.9,128.4 c 4.5,-0.3 9.4,-0.5 15.1,-0.6 l -0.1,-1.4 v -1.5 c -5.7,0.2 -10.7,0.4 -15.2,0.7 l 0.1,1.4 z" /><path
           id="path138"
           style="fill:#000000;fill-opacity:1;fill-rule:evenodd;stroke:none"
           d="m 340.2,126.3 -12.7,4.4 -0.2,-8.5 z" /><g
           id="g140"><text
             id="text144"
             style="font-variant:normal;font-weight:normal;font-size:24px;font-family:LiberationSans;-inkscape-font-specification:LiberationSans;writing-mode:lr-tb;fill:#ff0000;fill-opacity:1;fill-rule:nonzero;stroke:none"
             transform="matrix(1,0,0,-1,106,519.1)"><tspan
               id="tspan142"
               y="0"
               x="0 15.984 29.280001 34.584 47.880001 54.551998 67.919998">Pointer</tspan></text>
</g><g
           id="g146"><text
             id="text150"
             style="font-variant:normal;font-weight:normal;font-size:24px;font-family:LiberationSans;-inkscape-font-specification:LiberationSans;writing-mode:lr-tb;fill:#ff0000;fill-opacity:1;fill-rule:nonzero;stroke:none"
             transform="matrix(1,0,0,-1,106.3,334.9)"><tspan
               id="tspan148"
               y="0"
               x="0 15.984 29.280001 34.584 47.880001 54.551998 67.848">Pointer</tspan></text>
</g><g
           id="g152"><text
             id="text156"
             style="font-variant:normal;font-weight:normal;font-size:24px;font-family:LiberationSans;-inkscape-font-specification:LiberationSans;writing-mode:lr-tb;fill:#ff0000;fill-opacity:1;fill-rule:nonzero;stroke:none"
             transform="matrix(1,0,0,-1,106.3,334.9)"><tspan
               id="tspan154"
               y="0"
               x="0 15.984 29.280001 34.584 47.880001 54.551998 67.848">Pointer</tspan></text>
</g><g
           id="g158"><text
             id="text162"
             style="font-variant:normal;font-weight:normal;font-size:24px;font-family:LiberationSans;-inkscape-font-specification:LiberationSans;writing-mode:lr-tb;fill:#ff0000;fill-opacity:1;fill-rule:nonzero;stroke:none"
             transform="matrix(1,0,0,-1,106.3,150.6)"><tspan
               id="tspan160"
               y="0"
               x="0 15.984 29.280001 34.584 47.880001 54.551998 67.848">Pointer</tspan></text>
</g><g
           id="g164"><text
             id="text168"
             style="font-variant:normal;font-weight:normal;font-size:24px;font-family:LiberationSans;-inkscape-font-specification:LiberationSans;writing-mode:lr-tb;fill:#ff0000;fill-opacity:1;fill-rule:nonzero;stroke:none"
             transform="matrix(1,0,0,-1,106.3,334.9)"><tspan
               id="tspan166"
               y="0"
               x="0 15.984 29.280001 34.584 47.880001 54.551998 67.848">Pointer</tspan></text>
</g><g
           id="g170"><text
             id="text174"
             style="font-variant:normal;font-weight:normal;font-size:26px;font-family:LiberationSans;-inkscape-font-specification:LiberationSans;writing-mode:lr-tb;fill:#323232;fill-opacity:1;fill-rule:nonzero;stroke:none"
             transform="matrix(1,0,0,-1,106.3,729.9)"><tspan
               id="tspan172"
               y="0"
               x="0 18.771999 33.358002 47.84 62.321999 68.094002 73.788002 88.269997">Dangling</tspan></text>
</g><g
           id="g176"><text
             id="text180"
             style="font-variant:normal;font-weight:normal;font-size:26px;font-family:LiberationSans;-inkscape-font-specification:LiberationSans;writing-mode:lr-tb;fill:#323232;fill-opacity:1;fill-rule:nonzero;stroke:none"
             transform="matrix(1,0,0,-1,106.3,671.8)"><tspan
               id="tspan178"
               y="0"
               x="0 17.368 31.85 37.622002 52.104 59.306 73.788002">Pointer</tspan></text>
</g><g
           id="g182"><text
             id="text186"
             style="font-variant:normal;font-weight:normal;font-size:22px;font-family:LiberationSans;-inkscape-font-specification:LiberationSans;writing-mode:lr-tb;fill:#6b4794;fill-opacity:1;fill-rule:nonzero;stroke:none"
             transform="matrix(1,0,0,-1,355.4,675.6)"><tspan
               id="tspan184"
               y="0"
               x="0 14.608 26.818001 31.790001 44 50.094002 56.188 62.282001 74.557999 80.652 86.746002 99.022003 111.232">Point to the </tspan></text>
</g><g
           id="g188"><text
             id="text192"
             style="font-variant:normal;font-weight:normal;font-size:22px;font-family:LiberationSans;-inkscape-font-specification:LiberationSans;writing-mode:lr-tb;fill:#6b4794;fill-opacity:1;fill-rule:nonzero;stroke:none"
             transform="matrix(1,0,0,-1,371.4,651)"><tspan
               id="tspan190"
               y="0"
               x="0 18.194 30.403999 48.708 60.917999 68.288002 79.288002">memory </tspan></text>
</g><g
           id="g194"><text
             id="text198"
             style="font-variant:normal;font-weight:normal;font-size:22px;font-family:LiberationSans;-inkscape-font-specification:LiberationSans;writing-mode:lr-tb;fill:#6b4794;fill-opacity:1;fill-rule:nonzero;stroke:none"
             transform="matrix(1,0,0,-1,351.6,626.4)"><tspan
               id="tspan196"
               y="0"
               x="0 4.9720001 17.181999 28.181999 40.458 46.551998 51.436001 63.712002 75.921997 82.015999 88.197998 100.408 112.618 118.712">location that </tspan></text>
</g><g
           id="g200"><text
             id="text204"
             style="font-variant:normal;font-weight:normal;font-size:22px;font-family:LiberationSans;-inkscape-font-specification:LiberationSans;writing-mode:lr-tb;fill:#6b4794;fill-opacity:1;fill-rule:nonzero;stroke:none"
             transform="matrix(1,0,0,-1,351,601.8)"><tspan
               id="tspan202"
               y="0"
               x="0 12.276 23.275999 35.551998 47.762001 53.855999 60.037998 72.248001 78.342003 90.552002 102.828 107.712 119.922">used to hold </tspan></text>
</g><g
           id="g206"><text
             id="text210"
             style="font-variant:normal;font-weight:normal;font-size:22px;font-family:LiberationSans;-inkscape-font-specification:LiberationSans;writing-mode:lr-tb;fill:#6b4794;fill-opacity:1;fill-rule:nonzero;stroke:none"
             transform="matrix(1,0,0,-1,375.5,577.2)"><tspan
               id="tspan208"
               y="0"
               x="0 12.276 19.58 24.464001 36.674 41.557999 53.834 66.043999 70.928001">original </tspan></text>
</g><g
           id="g212"><text
             id="text216"
             style="font-variant:normal;font-weight:normal;font-size:22px;font-family:LiberationSans;-inkscape-font-specification:LiberationSans;writing-mode:lr-tb;fill:#6b4794;fill-opacity:1;fill-rule:nonzero;stroke:none"
             transform="matrix(1,0,0,-1,381.6,552.6)"><tspan
               id="tspan214"
               y="0"
               x="0 12.276 24.486 29.370001 41.646 52.646">object</tspan></text>
</g><g
           id="g218"><text
             id="text222"
             style="font-variant:normal;font-weight:normal;font-size:18px;font-family:LiberationSans;-inkscape-font-specification:LiberationSans;writing-mode:lr-tb;fill:#323232;fill-opacity:1;fill-rule:nonzero;stroke:none"
             transform="matrix(1,0,0,-1,375.6,411.1)"><tspan
               id="tspan220"
               y="0"
               x="0 12.906 22.914 26.91 36.810001 41.886002 51.785999 61.793999">Deleted </tspan></text>
</g><g
           id="g224"><text
             id="text228"
             style="font-variant:normal;font-weight:normal;font-size:18px;font-family:LiberationSans;-inkscape-font-specification:LiberationSans;writing-mode:lr-tb;fill:#323232;fill-opacity:1;fill-rule:nonzero;stroke:none"
             transform="matrix(1,0,0,-1,375.6,391)"><tspan
               id="tspan226"
               y="0"
               x="0 13.986 23.993999 27.9 37.908001 46.908001">Object</tspan></text>
</g><g
           id="g230"><text
             id="text234"
             style="font-variant:normal;font-weight:normal;font-size:20px;font-family:LiberationSans;-inkscape-font-specification:LiberationSans;writing-mode:lr-tb;fill:#323232;fill-opacity:1;fill-rule:nonzero;stroke:none"
             transform="matrix(1,0,0,-1,361.4,253.4)"><tspan
               id="tspan232"
               y="0"
               x="0 15.58 26.76 31.16 42.34 52.419998">Object</tspan></text>
</g><g
           id="g236"><text
             id="text240"
             style="font-variant:normal;font-weight:normal;font-size:20px;font-family:LiberationSans;-inkscape-font-specification:LiberationSans;writing-mode:lr-tb;fill:#323232;fill-opacity:1;fill-rule:nonzero;stroke:none"
             transform="matrix(1,0,0,-1,361.4,118.8)"><tspan
               id="tspan238"
               y="0"
               x="0 15.58 26.76 31.16 42.34 52.419998">Object</tspan></text>
</g><path
           id="path242"
           style="fill:#000000;fill-opacity:1;fill-rule:evenodd;stroke:none"
           d="m 226.8,705.2 c 6.2,0 11.7,-1 16.7,-3 l -0.5,-1.4 -0.6,-1.3 c -4.6,1.9 -9.8,2.9 -15.6,2.9 v 1.4 z" /><path
           id="path244"
           style="fill:#000000;fill-opacity:1;fill-rule:evenodd;stroke:none"
           d="m 243.5,702.2 c 5,-2 9.5,-5 13.5,-8.7 l -1,-1.1 -0.9,-1 c -3.8,3.5 -7.9,6.3 -12.7,8.1 l 0.6,1.3 z" /><path
           id="path246"
           style="fill:#000000;fill-opacity:1;fill-rule:evenodd;stroke:none"
           d="m 257,693.5 c 4,-3.7 7.4,-8.3 10.5,-13.5 l -1.2,-0.7 -1.2,-0.7 c -3,4.9 -6.3,9.3 -10,12.8 l 0.9,1 z" /><path
           id="path248"
           style="fill:#000000;fill-opacity:1;fill-rule:evenodd;stroke:none"
           d="m 267.5,680 c 3.1,-5.1 5.8,-10.9 8.1,-17.3 l -1.3,-0.5 -1.4,-0.5 c -2.2,6.2 -4.8,11.9 -7.8,16.9 l 1.2,0.7 z" /><path
           id="path250"
           style="fill:#000000;fill-opacity:1;fill-rule:evenodd;stroke:none"
           d="m 275.6,662.7 c 9.3,-25.3 13.5,-59.2 17,-94 l -1.4,-0.2 -1.4,-0.1 c -3.5,34.5 -7.6,68.2 -16.9,93.3 l 1.4,0.5 z" /><path
           id="path252"
           style="fill:#000000;fill-opacity:1;fill-rule:evenodd;stroke:none"
           d="m 289.8,568.4 1.4,0.1 -1.4,-0.1 z" /><path
           id="path254"
           style="fill:#000000;fill-opacity:1;fill-rule:evenodd;stroke:none"
           d="m 292.6,568.7 c 3.5,-34.7 6.4,-70.2 13.1,-98.8 l -1.4,-0.3 -1.4,-0.4 c -6.7,28.8 -9.6,64.4 -13.1,99.2 l 1.4,0.1 z" /><path
           id="path256"
           style="fill:#000000;fill-opacity:1;fill-rule:evenodd;stroke:none"
           d="m 305.7,469.9 c 3.3,-14.2 7.5,-26.6 13.3,-36.5 l -1.2,-0.7 -1.3,-0.7 c -5.9,10 -10.2,22.8 -13.6,37.2 l 1.4,0.4 z" /><path
           id="path258"
           style="fill:#000000;fill-opacity:1;fill-rule:evenodd;stroke:none"
           d="m 319,433.4 c 2.8,-4.8 6,-8.9 9.7,-12.3 l -1,-1.1 -1,-1 c -3.8,3.6 -7.2,8 -10.2,13 l 1.3,0.7 z" /><path
           id="path260"
           style="fill:#000000;fill-opacity:1;fill-rule:evenodd;stroke:none"
           d="m 328.7,421.1 c 3.6,-3.4 7.6,-5.9 12.1,-7.6 l -0.4,-1.4 -0.6,-1.3 c -4.8,1.8 -9.2,4.6 -13.1,8.2 l 1,1 z" /><path
           id="path262"
           style="fill:#000000;fill-opacity:1;fill-rule:evenodd;stroke:none"
           d="m 354.3,409.7 -17.2,10.4 -2.8,-12.4 z" /></g></g></g></svg>